<mxfile host="65bd71144e">
    <diagram id="oV1Jq_GuKGVsbx_PlDnz" name="Page-1">
        <mxGraphModel dx="1386" dy="846" grid="0" gridSize="10" guides="1" tooltips="1" connect="1" arrows="1" fold="1" page="1" pageScale="1" pageWidth="827" pageHeight="1169" math="0" shadow="0">
            <root>
                <mxCell id="0"/>
                <mxCell id="1" parent="0"/>
                <mxCell id="15" style="edgeStyle=none;html=1;entryX=0.086;entryY=0.8;entryDx=0;entryDy=0;entryPerimeter=0;labelBackgroundColor=none;fontColor=#FFFFFF;strokeColor=#FFFFFF;movable=1;cloneable=1;shadow=1;labelBorderColor=none;fillColor=none;" edge="1" parent="1" source="2" target="3">
                    <mxGeometry relative="1" as="geometry"/>
                </mxCell>
                <mxCell id="16" style="edgeStyle=none;html=1;entryX=0.5;entryY=1;entryDx=0;entryDy=0;labelBackgroundColor=none;fontColor=#FFFFFF;strokeColor=#FFFFFF;movable=1;cloneable=1;shadow=1;labelBorderColor=none;fillColor=none;" edge="1" parent="1" source="2" target="14">
                    <mxGeometry relative="1" as="geometry"/>
                </mxCell>
                <mxCell id="17" style="edgeStyle=none;html=1;entryX=0;entryY=0.5;entryDx=0;entryDy=0;labelBackgroundColor=none;fontColor=#FFFFFF;strokeColor=#FFFFFF;movable=1;cloneable=1;shadow=1;labelBorderColor=none;fillColor=none;" edge="1" parent="1" source="2" target="4">
                    <mxGeometry relative="1" as="geometry"/>
                </mxCell>
                <mxCell id="18" style="edgeStyle=none;html=1;entryX=0;entryY=0.5;entryDx=0;entryDy=0;labelBackgroundColor=#F5F5F5;fontColor=#FFFFFF;strokeColor=#FFFFFF;movable=1;cloneable=1;shadow=1;labelBorderColor=none;fillColor=none;" edge="1" parent="1" source="2" target="7">
                    <mxGeometry relative="1" as="geometry"/>
                </mxCell>
                <mxCell id="19" style="edgeStyle=none;html=1;entryX=0;entryY=0.5;entryDx=0;entryDy=0;labelBackgroundColor=none;fontColor=#FFFFFF;strokeColor=#FFFFFF;movable=1;cloneable=1;shadow=1;labelBorderColor=none;fillColor=none;gradientColor=#b3b3b3;" edge="1" parent="1" source="2" target="8">
                    <mxGeometry relative="1" as="geometry"/>
                </mxCell>
                <mxCell id="20" style="edgeStyle=none;html=1;entryX=0;entryY=0.5;entryDx=0;entryDy=0;labelBackgroundColor=none;fontColor=#FFFFFF;strokeColor=#FFFFFF;movable=1;cloneable=1;shadow=1;labelBorderColor=none;fillColor=none;" edge="1" parent="1" source="2" target="9">
                    <mxGeometry relative="1" as="geometry"/>
                </mxCell>
                <mxCell id="21" style="edgeStyle=none;html=1;entryX=0;entryY=0.5;entryDx=0;entryDy=0;labelBackgroundColor=none;fontColor=#FFFFFF;strokeColor=#FFFFFF;movable=1;cloneable=1;shadow=1;labelBorderColor=none;fillColor=none;" edge="1" parent="1" source="2" target="10">
                    <mxGeometry relative="1" as="geometry"/>
                </mxCell>
                <mxCell id="22" style="edgeStyle=none;html=1;entryX=0.5;entryY=0;entryDx=0;entryDy=0;labelBackgroundColor=none;fontColor=#FFFFFF;strokeColor=#FFFFFF;movable=1;cloneable=1;shadow=1;labelBorderColor=none;fillColor=none;" edge="1" parent="1" source="2" target="11">
                    <mxGeometry relative="1" as="geometry"/>
                </mxCell>
                <mxCell id="23" style="edgeStyle=none;html=1;entryX=0.5;entryY=0;entryDx=0;entryDy=0;labelBackgroundColor=none;fontColor=#FFFFFF;strokeColor=#FFFFFF;movable=1;cloneable=1;shadow=1;labelBorderColor=none;fillColor=none;" edge="1" parent="1" source="2" target="12">
                    <mxGeometry relative="1" as="geometry"/>
                </mxCell>
                <mxCell id="24" style="edgeStyle=none;html=1;entryX=1;entryY=0;entryDx=0;entryDy=0;labelBackgroundColor=none;fontColor=#FFFFFF;strokeColor=#FFFFFF;movable=1;cloneable=1;shadow=1;labelBorderColor=none;fillColor=none;" edge="1" parent="1" source="2" target="13">
                    <mxGeometry relative="1" as="geometry"/>
                </mxCell>
                <mxCell id="26" style="edgeStyle=none;html=1;entryX=1;entryY=0.5;entryDx=0;entryDy=0;labelBackgroundColor=none;fontColor=#FFFFFF;strokeColor=#FFFFFF;movable=1;cloneable=1;shadow=1;labelBorderColor=none;fillColor=none;" edge="1" parent="1" source="2" target="25">
                    <mxGeometry relative="1" as="geometry"/>
                </mxCell>
                <mxCell id="28" style="edgeStyle=none;html=1;entryX=1;entryY=0.5;entryDx=0;entryDy=0;labelBackgroundColor=none;fontColor=#FFFFFF;strokeColor=#FFFFFF;movable=1;cloneable=1;shadow=1;labelBorderColor=none;fillColor=none;" edge="1" parent="1" source="2" target="27">
                    <mxGeometry relative="1" as="geometry"/>
                </mxCell>
                <mxCell id="2" value="Admin Empresa" style="shape=umlActor;verticalLabelPosition=bottom;verticalAlign=top;labelBackgroundColor=none;movable=1;cloneable=1;shadow=1;labelBorderColor=none;fillColor=none;html=1;whiteSpace=wrap;gradientDirection=north;strokeColor=#FFFFFF;gradientColor=#F5F5F5;fontColor=#FFFFFF;" vertex="1" parent="1">
                    <mxGeometry x="399" y="340" width="30" height="60" as="geometry"/>
                </mxCell>
                <mxCell id="3" value="Login" style="ellipse;whiteSpace=wrap;html=1;labelBackgroundColor=none;strokeColor=#FFFFFF;movable=1;cloneable=1;shadow=1;labelBorderColor=none;fillColor=none;fontColor=#FFFFFF;" vertex="1" parent="1">
                    <mxGeometry x="520" y="50" width="140" height="70" as="geometry"/>
                </mxCell>
                <mxCell id="4" value="Cadastrar Usuário" style="ellipse;whiteSpace=wrap;html=1;labelBackgroundColor=none;strokeColor=#FFFFFF;movable=1;cloneable=1;shadow=1;labelBorderColor=none;fillColor=none;fontColor=#FFFFFF;" vertex="1" parent="1">
                    <mxGeometry x="660" y="120" width="140" height="70" as="geometry"/>
                </mxCell>
                <mxCell id="7" value="Buscar Usuário" style="ellipse;whiteSpace=wrap;html=1;labelBackgroundColor=none;strokeColor=#FFFFFF;movable=1;cloneable=1;shadow=1;labelBorderColor=none;fillColor=none;fontColor=#FFFFFF;" vertex="1" parent="1">
                    <mxGeometry x="660" y="240" width="140" height="70" as="geometry"/>
                </mxCell>
                <mxCell id="8" value="Cadastrar Produto" style="ellipse;whiteSpace=wrap;html=1;labelBackgroundColor=none;strokeColor=#FFFFFF;movable=1;cloneable=1;shadow=1;labelBorderColor=none;fillColor=none;fontColor=#FFFFFF;" vertex="1" parent="1">
                    <mxGeometry x="660" y="340" width="140" height="70" as="geometry"/>
                </mxCell>
                <mxCell id="9" value="Atualizar Produto" style="ellipse;whiteSpace=wrap;html=1;labelBackgroundColor=none;strokeColor=#FFFFFF;movable=1;cloneable=1;shadow=1;labelBorderColor=none;fillColor=none;fontColor=#FFFFFF;" vertex="1" parent="1">
                    <mxGeometry x="660" y="440" width="140" height="70" as="geometry"/>
                </mxCell>
                <mxCell id="10" value="Buscar Produto" style="ellipse;whiteSpace=wrap;html=1;labelBackgroundColor=none;strokeColor=#FFFFFF;movable=1;cloneable=1;shadow=1;labelBorderColor=none;fillColor=none;fontColor=#FFFFFF;" vertex="1" parent="1">
                    <mxGeometry x="550" y="530" width="140" height="70" as="geometry"/>
                </mxCell>
                <mxCell id="11" value="Excluir Produto" style="ellipse;whiteSpace=wrap;html=1;labelBackgroundColor=none;strokeColor=#FFFFFF;movable=1;cloneable=1;shadow=1;labelBorderColor=none;fillColor=none;fontColor=#FFFFFF;" vertex="1" parent="1">
                    <mxGeometry x="344" y="550" width="140" height="70" as="geometry"/>
                </mxCell>
                <mxCell id="12" value="Cadastrar Nova Finança" style="ellipse;whiteSpace=wrap;html=1;labelBackgroundColor=none;strokeColor=#FFFFFF;movable=1;cloneable=1;shadow=1;labelBorderColor=none;fillColor=none;fontColor=#FFFFFF;" vertex="1" parent="1">
                    <mxGeometry x="160" y="480" width="140" height="70" as="geometry"/>
                </mxCell>
                <mxCell id="13" value="Atualizar Finança" style="ellipse;whiteSpace=wrap;html=1;labelBackgroundColor=none;strokeColor=#FFFFFF;movable=1;cloneable=1;shadow=1;labelBorderColor=none;fillColor=none;fontColor=#FFFFFF;" vertex="1" parent="1">
                    <mxGeometry x="90" y="360" width="140" height="70" as="geometry"/>
                </mxCell>
                <mxCell id="14" value="Dashboard" style="ellipse;whiteSpace=wrap;html=1;labelBackgroundColor=none;strokeColor=#FFFFFF;movable=1;cloneable=1;shadow=1;labelBorderColor=none;fillColor=none;fontColor=#FFFFFF;" vertex="1" parent="1">
                    <mxGeometry x="344" y="30" width="140" height="70" as="geometry"/>
                </mxCell>
                <mxCell id="25" value="Upload de arquivo" style="ellipse;whiteSpace=wrap;html=1;labelBackgroundColor=none;strokeColor=#FFFFFF;movable=1;cloneable=1;shadow=1;labelBorderColor=none;fillColor=none;fontColor=#FFFFFF;" vertex="1" parent="1">
                    <mxGeometry x="100" y="200" width="140" height="70" as="geometry"/>
                </mxCell>
                <mxCell id="27" value="Download de relatório" style="ellipse;whiteSpace=wrap;html=1;labelBackgroundColor=none;strokeColor=#FFFFFF;movable=1;cloneable=1;shadow=1;labelBorderColor=none;fillColor=none;fontColor=#FFFFFF;" vertex="1" parent="1">
                    <mxGeometry x="150" y="90" width="140" height="70" as="geometry"/>
                </mxCell>
                <mxCell id="64" value="Use Case: Administrador da empresa" style="text;align=center;fontStyle=1;verticalAlign=middle;spacingLeft=3;spacingRight=3;rotatable=0;points=[[0,0.5],[1,0.5]];portConstraint=eastwest;labelBackgroundColor=none;strokeColor=#FFFFFF;movable=1;cloneable=1;shadow=1;labelBorderColor=none;fillColor=none;fontColor=#FFFFFF;" vertex="1" parent="1">
                    <mxGeometry x="40" y="10" width="240" height="26" as="geometry"/>
                </mxCell>
            </root>
        </mxGraphModel>
    </diagram>
</mxfile>